<svg xmlns="http://www.w3.org/2000/svg" viewBox="0 0 512 512" role="img" aria-labelledby="title desc">
  <title id="title">Focus Hero logo</title>
  <desc id="desc">A shield-shaped focus mark with a target ring, lightning spark, and upward momentum path.</desc>
  <defs>
    <linearGradient id="bg" x1="68" y1="54" x2="462" y2="474" gradientUnits="userSpaceOnUse">
      <stop offset="0" stop-color="#66e3c4"/>
      <stop offset="0.48" stop-color="#7aa7ff"/>
      <stop offset="1" stop-color="#b48dff"/>
    </linearGradient>
    <linearGradient id="gold" x1="184" y1="116" x2="344" y2="386" gradientUnits="userSpaceOnUse">
      <stop offset="0" stop-color="#fff1a6"/>
      <stop offset="1" stop-color="#f59e0b"/>
    </linearGradient>
    <filter id="shadow" x="-20%" y="-20%" width="140%" height="150%">
      <feDropShadow dx="0" dy="20" stdDeviation="20" flood-color="#020617" flood-opacity=".45"/>
    </filter>
  </defs>
  <rect width="512" height="512" rx="116" fill="#0b0d1a"/>
  <path d="M256 54c69 50 129 60 176 65v127c0 104-64 174-176 214C144 420 80 350 80 246V119c47-5 107-15 176-65Z" fill="url(#bg)" filter="url(#shadow)"/>
  <path d="M256 84c56 37 105 48 144 54v103c0 88-52 146-144 181-92-35-144-93-144-181V138c39-6 88-17 144-54Z" fill="#101827" opacity=".92"/>
  <circle cx="256" cy="246" r="122" fill="none" stroke="#e8ecff" stroke-width="18" opacity=".92"/>
  <circle cx="256" cy="246" r="72" fill="none" stroke="#66e3c4" stroke-width="14" opacity=".95"/>
  <path d="M284 112 174 274h78l-24 126 116-174h-82l22-114Z" fill="url(#gold)" stroke="#fff7cc" stroke-width="8" stroke-linejoin="round"/>
  <path d="M146 346c61 28 139 26 219-8" fill="none" stroke="#7aa7ff" stroke-width="18" stroke-linecap="round" opacity=".9"/>
  <path d="M360 304 404 333 356 359" fill="none" stroke="#7aa7ff" stroke-width="18" stroke-linecap="round" stroke-linejoin="round"/>
  <circle cx="394" cy="142" r="16" fill="#66e3c4"/>
  <circle cx="118" cy="188" r="10" fill="#b48dff"/>
</svg>
